HIERARCHY
ROOT root
{
	OFFSET 0.000000 0.000000 0.000000
	CHANNELS 6 Xposition Yposition Zposition Zrotation Yrotation Xrotation
	JOINT lhip
	{
		OFFSET 0.058581 -0.082280 -0.017664
		CHANNELS 3 Zrotation Yrotation Xrotation
		JOINT lknee
		{
			OFFSET 0.043451 -0.386469 0.008037
			CHANNELS 3 Zrotation Yrotation Xrotation
			JOINT lankle
			{
				OFFSET -0.014790 -0.426874 -0.037428
				CHANNELS 3 Zrotation Yrotation Xrotation
				JOINT ltoe
				{
					OFFSET 0.041054 -0.060286 0.122042
					CHANNELS 3 Zrotation Yrotation Xrotation
					End Site
					{
						OFFSET 0.000000 0.000000 0.000000
					}
				}
			}
		}
	}
	JOINT rhip
	{
		OFFSET -0.060310 -0.090513 -0.013543
		CHANNELS 3 Zrotation Yrotation Xrotation
		JOINT rknee
		{
			OFFSET -0.043257 -0.383688 -0.004843
			CHANNELS 3 Zrotation Yrotation Xrotation
			JOINT rankle
			{
				OFFSET 0.019056 -0.420046 -0.034562
				CHANNELS 3 Zrotation Yrotation Xrotation
				JOINT rtoe
				{
					OFFSET -0.034840 -0.062106 0.130323
					CHANNELS 3 Zrotation Yrotation Xrotation
					End Site
					{
						OFFSET 0.000000 0.000000 0.000000
					}
				}
			}
		}
	}
	JOINT lowerback
	{
		OFFSET 0.004439 0.124404 -0.038385
		CHANNELS 3 Zrotation Yrotation Xrotation
		JOINT upperback
		{
			OFFSET 0.004488 0.137956 0.026820
			CHANNELS 3 Zrotation Yrotation Xrotation
			JOINT chest
			{
				OFFSET -0.002265 0.056032 0.002855
				CHANNELS 3 Zrotation Yrotation Xrotation
				JOINT lowerneck
				{
					OFFSET -0.013390 0.211636 -0.033468
					CHANNELS 3 Zrotation Yrotation Xrotation
					JOINT upperneck
					{
						OFFSET 0.010113 0.088937 0.050410
						CHANNELS 3 Zrotation Yrotation Xrotation
						End Site
						{
							OFFSET 0.000000 0.000000 0.000000
						}
					}
				}
				JOINT lclavicle
				{
					OFFSET 0.071702 0.114000 -0.018898
					CHANNELS 3 Zrotation Yrotation Xrotation
					JOINT lshoulder
					{
						OFFSET 0.122921 0.045205 -0.019046
						CHANNELS 3 Zrotation Yrotation Xrotation
						JOINT lelbow
						{
							OFFSET 0.255332 -0.015649 -0.022946
							CHANNELS 3 Zrotation Yrotation Xrotation
							JOINT lwrist
							{
								OFFSET 0.265709 0.012698 -0.007375
								CHANNELS 3 Zrotation Yrotation Xrotation
								End Site
								{
									OFFSET 0.000000 0.000000 0.000000
								}
							}
						}
					}
				}
				JOINT rclavicle
				{
					OFFSET -0.082954 0.112472 -0.023707
					CHANNELS 3 Zrotation Yrotation Xrotation
					JOINT rshoulder
					{
						OFFSET -0.113228 0.046853 -0.008472
						CHANNELS 3 Zrotation Yrotation Xrotation
						JOINT relbow
						{
							OFFSET -0.260127 -0.014369 -0.031269
							CHANNELS 3 Zrotation Yrotation Xrotation
							JOINT rwrist
							{
								OFFSET -0.269108 0.006794 -0.006027
								CHANNELS 3 Zrotation Yrotation Xrotation
								End Site
								{
									OFFSET 0.000000 0.000000 0.000000
								}
							}
						}
					}
				}
			}
		}
	}
}
MOTION
Frames: 17
Frame Time: 0.033333
-0.083680 0.204548 0.897552 95.129413 1.462721 87.993844 7.765120 -1.414270 -25.668648 -6.269442 -0.779369 50.664145 1.645744 4.939916 -32.125629 0.000000 -0.000000 0.000000 -7.844236 -6.657570 -19.275871 1.574954 -6.160369 45.092631 0.490537 -0.335815 -32.464713 0.000000 -0.000000 0.000000 1.239626 0.909203 14.140443 3.243796 -6.814908 -1.754089 1.378954 -2.317612 -3.527642 -4.520811 -19.370604 4.099731 6.414276 -23.104674 -12.883093 -1.187309 -28.231795 -7.688626 -19.249569 -33.428739 -12.931066 61.779107 -53.001251 -33.356658 -41.968479 -18.076142 -4.313448 -4.941840 31.335760 -11.424618 20.385796 37.122221 -14.306082 -43.874658 46.591060 -18.672459 47.961624 11.370692 -16.735520 
-0.081948 0.204040 0.897657 94.962636 1.389924 87.936203 7.670791 -1.133511 -25.618748 -5.981918 -0.666733 51.150343 1.875715 4.510963 -32.603557 0.000000 -0.000000 0.000000 -8.055910 -6.606653 -19.130498 1.704686 -6.279516 45.219090 0.596002 -0.003224 -32.652039 0.000000 -0.000000 0.000000 0.862882 0.936619 13.760347 3.419944 -6.799695 -1.073709 1.411166 -2.375552 -3.930079 -4.231158 -18.982441 3.496839 5.946538 -23.307605 -12.181559 -0.992575 -28.415279 -7.906047 -19.299270 -33.192196 -12.667141 61.930058 -52.481456 -34.137809 -43.660165 -17.453728 -4.024648 -4.159851 31.911220 -10.884593 19.402080 36.859080 -14.560562 -43.603732 46.116630 -19.889048 49.011194 10.734274 -16.077342 
-0.080327 0.204089 0.897341 94.865705 1.346913 87.890078 7.601474 -1.165631 -25.528883 -5.951678 -0.656755 51.393252 1.902015 4.545768 -32.786609 0.000000 -0.000000 0.000000 -8.189087 -6.661477 -19.040257 1.793514 -6.297197 45.336394 0.650575 0.153067 -32.669963 0.000000 -0.000000 0.000000 0.770007 0.950975 13.681859 3.442315 -6.824732 -0.998503 1.393061 -2.361616 -4.003007 -4.114176 -18.797816 3.291710 5.864295 -23.327669 -12.042360 -0.972061 -28.445507 -7.949247 -19.306769 -33.190044 -12.581510 61.809276 -52.335715 -34.158165 -44.090228 -17.422144 -4.154445 -3.920378 31.972222 -10.802198 19.250970 36.832022 -14.567963 -43.392455 45.900727 -19.963378 49.362381 10.660705 -16.230908 
-0.078074 0.204058 0.896987 94.685905 1.356371 87.801777 7.636747 -1.180306 -25.323511 -5.956196 -0.615675 51.614640 1.849002 4.589261 -32.939707 0.000000 -0.000000 0.000000 -8.216320 -6.639545 -18.864142 1.857195 -6.257514 45.426480 0.643715 0.255690 -32.744765 0.000000 -0.000000 0.000000 0.690630 1.006241 13.450816 3.459104 -6.816575 -0.767804 1.356291 -2.346860 -4.107721 -3.996634 -18.551802 3.280106 5.782342 -23.310501 -11.895968 -1.045550 -28.515271 -7.870836 -19.290206 -33.139995 -12.493728 61.715965 -52.274907 -34.333734 -44.349357 -17.571416 -4.416343 -3.660133 32.031420 -10.628022 19.089009 36.789045 -14.589269 -43.146759 45.754856 -19.906198 49.503232 10.673849 -16.327454 
-0.076680 0.204020 0.896913 94.566719 1.358723 87.750836 7.648539 -1.155154 -25.151755 -5.942198 -0.610106 51.665553 1.829327 4.592496 -33.032473 0.000000 -0.000000 0.000000 -8.219660 -6.606241 -18.746241 1.866617 -6.230660 45.455396 0.658152 0.326037 -32.786577 0.000000 -0.000000 0.000000 0.634754 1.040097 13.287379 3.448459 -6.794161 -0.642988 1.319820 -2.339700 -4.151455 -3.913332 -18.410823 3.332830 5.755163 -23.309195 -11.789376 -1.099613 -28.511365 -7.804867 -19.350875 -33.166275 -12.420563 61.704571 -52.256391 -34.435142 -44.402816 -17.682006 -4.582115 -3.505481 32.019968 -10.502547 19.088963 36.792003 -14.568797 -43.040239 45.692726 -19.947183 49.503178 10.748873 -16.464181 
-0.074917 0.203997 0.897050 94.531309 1.369597 87.685028 7.636494 -1.205466 -24.911910 -5.930296 -0.680054 51.656533 1.804273 4.633837 -33.135181 0.000000 -0.000000 0.000000 -8.242089 -6.637352 -18.520450 1.875564 -6.254826 45.413983 0.697612 0.430266 -32.806126 0.000000 -0.000000 0.000000 0.544499 1.054968 13.118277 3.445625 -6.838561 -0.512174 1.300631 -2.344711 -4.231001 -3.816927 -18.265324 3.441909 5.748479 -23.289675 -11.627355 -1.174564 -28.515407 -7.680113 -19.448791 -33.174175 -12.360182 61.729660 -52.239534 -34.620344 -44.503341 -17.853602 -4.907603 -3.344228 31.988615 -10.388445 19.177890 36.769693 -14.512473 -42.872004 45.651027 -19.899716 49.569378 10.832457 -16.611457 
-0.073182 0.203947 0.897375 94.477417 1.389799 87.618843 7.652880 -1.268010 -24.638421 -5.949074 -0.731849 51.577618 1.776417 4.712724 -33.207672 0.000000 -0.000000 0.000000 -8.232443 -6.623721 -18.257271 1.928743 -6.240256 45.284341 0.703471 0.427218 -32.839334 0.000000 -0.000000 0.000000 0.454354 1.071073 12.921102 3.443495 -6.879522 -0.338526 1.276450 -2.340232 -4.304547 -3.758144 -18.148711 3.558002 5.731380 -23.267446 -11.451749 -1.264691 -28.506610 -7.581691 -19.471715 -33.143866 -12.270608 61.657823 -52.272698 -34.711651 -44.367970 -18.028049 -5.151579 -3.165484 31.988850 -10.266933 19.189051 36.722828 -14.438252 -42.723497 45.636866 -19.807739 49.659441 10.878187 -16.699633 
-0.071419 0.203908 0.897800 94.373266 1.441394 87.567536 7.717996 -1.252340 -24.366327 -5.976943 -0.767558 51.486969 1.734006 4.741213 -33.265779 0.000000 -0.000000 0.000000 -8.163618 -6.523772 -17.989522 2.003518 -6.151738 45.082256 0.710255 0.384919 -32.878039 0.000000 -0.000000 0.000000 0.391923 1.101333 12.677758 3.457279 -6.877185 -0.134030 1.254227 -2.319680 -4.387223 -3.722146 -18.070993 3.629822 5.644879 -23.313054 -11.213395 -1.324457 -28.547864 -7.498499 -19.468601 -33.085560 -12.229706 61.542281 -52.253748 -34.613302 -44.755105 -17.985172 -5.101361 -2.999838 32.045287 -10.138187 19.113533 36.617578 -14.435726 -42.590054 45.631630 -19.761517 50.133309 10.952350 -16.782891 
-0.069808 0.203803 0.898303 94.252668 1.505501 87.519735 7.800232 -1.210401 -24.083113 -6.001238 -0.819238 51.355192 1.698232 4.744728 -33.332811 0.000000 -0.000000 0.000000 -8.065599 -6.411951 -17.743816 2.045996 -6.082886 44.875825 0.713033 0.346208 -32.890873 0.000000 -0.000000 0.000000 0.336022 1.152741 12.456987 3.473603 -6.858331 0.072452 1.224867 -2.290502 -4.492518 -3.669502 -17.907551 3.751846 5.591379 -23.370914 -10.989490 -1.350433 -28.580995 -7.420258 -19.414158 -33.046269 -12.220299 61.407056 -52.230996 -34.515599 -45.115654 -17.931249 -5.026419 -2.859165 32.043305 -10.024840 19.088864 36.544704 -14.412789 -42.548862 45.641618 -19.689704 50.407333 10.959502 -16.874559 
-0.067953 0.203637 0.898783 94.134572 1.554958 87.497528 7.841243 -1.244447 -23.810068 -5.972974 -0.866498 51.229963 1.658325 4.802676 -33.417059 0.000000 -0.000000 0.000000 -7.977843 -6.347965 -17.509289 2.056218 -6.042463 44.674264 0.716578 0.370772 -32.934630 0.000000 -0.000000 0.000000 0.243967 1.200812 12.253469 3.476266 -6.844474 0.200443 1.197361 -2.266854 -4.604211 -3.593522 -17.674958 3.900723 5.492868 -23.329031 -10.696347 -1.418903 -28.583108 -7.344876 -19.264733 -32.955631 -12.208001 61.356146 -52.210598 -34.680941 -45.402428 -17.932779 -5.004204 -2.633499 32.075082 -9.831357 18.980793 36.472087 -14.409118 -42.508315 45.606174 -19.840513 50.633890 10.996641 -16.892972 
-0.066694 0.203448 0.898930 94.043738 1.589066 87.518013 7.844225 -1.233834 -23.680349 -5.910299 -0.921366 51.187375 1.645893 4.866607 -33.501617 0.000000 -0.000000 0.000000 -7.904210 -6.325789 -17.422742 2.050379 -6.013769 44.617489 0.708560 0.406842 -32.989673 0.000000 -0.000000 0.000000 0.188224 1.204810 12.200073 3.452659 -6.812293 0.134546 1.180341 -2.266014 -4.651685 -3.543254 -17.552291 3.948811 5.430319 -23.238046 -10.507473 -1.458070 -28.487132 -7.324657 -19.204294 -32.857561 -12.198298 61.526351 -52.320368 -34.899588 -45.460004 -17.972907 -5.122380 -2.538217 32.033008 -9.754158 19.040533 36.444354 -14.336129 -42.545462 45.664371 -19.938582 50.731859 11.115492 -16.996850 
-0.065518 0.203156 0.898907 93.931087 1.612410 87.502519 7.864282 -1.206964 -23.525700 -5.834267 -0.916793 51.159742 1.638433 4.870796 -33.610450 0.000000 -0.000000 0.000000 -7.868413 -6.323802 -17.353136 2.033782 -6.032747 44.630632 0.708429 0.533535 -33.044028 0.000000 -0.000000 0.000000 0.117393 1.223363 12.170239 3.428171 -6.781159 0.131450 1.163915 -2.260670 -4.676022 -3.481284 -17.352639 3.936827 5.389118 -23.225176 -10.396546 -1.510759 -28.390397 -7.333316 -19.134136 -32.775149 -12.210778 61.648514 -52.372387 -35.202748 -45.651592 -17.953380 -5.123269 -2.392293 31.985696 -9.677716 19.060683 36.473621 -14.294042 -42.577662 45.715029 -20.092838 50.739725 11.097000 -16.971425 
-0.064434 0.202873 0.898815 93.842802 1.651880 87.425144 7.915776 -1.197344 -23.342987 -5.804256 -0.920242 51.177143 1.600913 4.891180 -33.703601 0.000000 -0.000000 0.000000 -7.835868 -6.336218 -17.212993 2.050673 -6.069532 44.641470 0.700566 0.626234 -33.094389 0.000000 -0.000000 0.000000 0.079620 1.225622 12.205155 3.394915 -6.764892 0.170831 1.153419 -2.257258 -4.699849 -3.458451 -17.134028 3.926212 5.317150 -23.115729 -10.287204 -1.579476 -28.308848 -7.289883 -19.134733 -32.664468 -12.200037 61.799335 -52.395935 -35.425957 -45.522077 -18.148496 -5.245658 -2.270308 31.971531 -9.600454 19.099920 36.476140 -14.259172 -42.544714 45.734001 -20.148829 50.621950 11.177182 -17.050630 
-0.063452 0.202576 0.898714 93.775942 1.697536 87.350857 7.982394 -1.201874 -23.211832 -5.829511 -0.960453 51.273057 1.545348 4.938613 -33.745528 0.000000 -0.000000 0.000000 -7.792824 -6.351491 -17.077356 2.070109 -6.091180 44.657944 0.654351 0.680668 -33.144206 0.000000 -0.000000 0.000000 0.052799 1.251769 12.254763 3.361600 -6.762492 0.170946 1.133435 -2.257829 -4.741650 -3.444125 -16.771909 4.048045 5.182969 -22.904369 -10.051841 -1.722043 -28.357096 -7.139696 -19.023927 -32.518007 -12.260981 61.681665 -52.408208 -35.298613 -45.612563 -18.302653 -5.341620 -2.088711 31.966973 -9.421523 19.123513 36.440134 -14.284639 -42.452624 45.770086 -19.853004 50.570493 11.278195 -17.271104 
-0.062638 0.202276 0.898449 93.742039 1.747870 87.348204 8.050894 -1.209712 -23.212927 -5.816577 -0.971449 51.420705 1.506805 4.953795 -33.785533 0.000000 -0.000000 0.000000 -7.730469 -6.356120 -17.086202 2.045966 -6.179383 44.777025 0.629910 0.676302 -33.192328 0.000000 -0.000000 0.000000 0.012297 1.260229 12.167032 3.350673 -6.769345 0.266330 1.109566 -2.246049 -4.805422 -3.460537 -16.222833 4.199390 4.955041 -22.586199 -9.595750 -1.763088 -28.443167 -7.053203 -19.044095 -32.354080 -12.201894 61.538447 -52.403002 -35.179659 -45.801575 -18.266794 -5.249324 -1.914233 32.029156 -9.255665 19.085672 36.361338 -14.289615 -42.225059 45.695794 -19.779713 50.712646 11.381381 -17.307893 
-0.061998 0.201976 0.898224 93.706216 1.802537 87.320158 8.105009 -1.193084 -23.179175 -5.792397 -1.026025 51.537165 1.462101 4.959447 -33.843080 0.000000 -0.000000 0.000000 -7.630682 -6.321448 -17.071307 1.932348 -6.275806 44.880184 0.617782 0.668684 -33.224291 0.000000 -0.000000 0.000000 -0.015179 1.270028 12.172251 3.336512 -6.761743 0.327501 1.078957 -2.228121 -4.923346 -3.406886 -15.190267 4.368472 4.512672 -21.895138 -8.753540 -1.849600 -28.571132 -6.879290 -18.974306 -32.239295 -12.208235 61.217540 -52.396363 -34.894918 -45.868290 -18.375854 -5.166316 -1.636500 32.038857 -8.972441 18.995741 36.351129 -14.324584 -41.929113 45.627786 -19.543405 50.630556 11.644283 -17.515305 
-0.061467 0.201730 0.898120 93.672088 1.845979 87.276508 8.142320 -1.227461 -23.091910 -5.768288 -1.079439 51.575776 1.437313 5.015245 -33.897656 0.000000 -0.000000 0.000000 -7.520325 -6.227027 -17.012435 1.835472 -6.283206 44.911576 0.606543 0.599368 -33.275462 0.000000 -0.000000 0.000000 -0.052908 1.272542 12.244936 3.301405 -6.746934 0.276198 1.036640 -2.178908 -5.044907 -3.284691 -13.591478 4.759400 3.967820 -20.716438 -7.561071 -1.895998 -28.724188 -6.691947 -18.987914 -32.162788 -12.171672 60.824177 -52.405775 -34.424579 -45.900202 -18.516788 -5.171149 -1.262178 32.000989 -8.570060 18.935408 36.365048 -14.363464 -41.598884 45.553529 -19.253010 50.469923 11.909544 -17.758079 
